<svg height="512pt" viewBox="-11 0 512 512.00103" width="512pt" xmlns="http://www.w3.org/2000/svg"><path d="m490.234375 65.851562c0 36.371094-29.480469 65.855469-65.851563 65.855469-36.371093 0-65.855468-29.484375-65.855468-65.855469 0-36.367187 29.484375-65.851562 65.855468-65.851562 36.371094 0 65.851563 29.484375 65.851563 65.851562zm0 0" fill="#31363e"/><path d="m240.039062 512h-105.550781c0-29.503906 9.789063-58.886719 27.917969-82.222656 10.988281-14.164063 20.996094-21.25 20.996094-21.25zm0 0" fill="#ac84c4"/><path d="m296.683594 408.53125s10.003906 7.085938 20.992187 21.246094c18.128907 23.335937 27.921875 52.71875 27.921875 82.222656h-105.558594zm0 0" fill="#ac84c4"/><path d="m13.429688 223.921875c0-59.742187 23.636718-115.878906 66.558593-158.070313 42.777344-42.050781 99.621094-65.210937 160.050781-65.210937 60.433594 0 117.273438 23.15625 160.054688 65.210937 42.921875 42.191407 66.558594 98.328126 66.558594 158.070313zm0 0" fill="#394048"/><path d="m255.492188 1.160156c-5.121094-.339844-10.269532-.519531-15.453126-.519531-60.429687 0-117.273437 23.160156-160.050781 65.210937-42.921875 42.195313-66.558593 98.328126-66.558593 158.070313h30.902343c0-59.742187 23.640625-115.875 66.558594-158.070313 39.117187-38.449218 89.984375-61.089843 144.601563-64.691406zm0 0" fill="#31363e"/><path d="m480.082031 254.128906c0 21.707032-17.597656 39.300782-39.304687 39.300782-21.707032 0-39.300782-17.59375-39.300782-39.300782 0-21.707031 17.59375-39.304687 39.300782-39.304687 21.707031 0 39.304687 17.597656 39.304687 39.304687zm0 0" fill="#7f6052"/><path d="m296.683594 408.53125s-10.382813 55.683594-56.644532 103.46875c-46.257812-47.785156-56.640624-103.46875-56.640624-103.46875zm0 0" fill="#e8e8e8"/><path d="m433.074219 206.453125c-8.945313-24.988281-39.28125-95.925781-97.738281-104.019531-66.53125-9.210938-95.296876 35.925781-95.296876 35.925781s-28.761718-45.136719-95.292968-35.925781c-58.457032 8.09375-88.796875 79.039062-97.738282 104.019531-1.996093 5.578125-3.074218 11.453125-3.078124 17.378906v.089844c0 106.46875 87.804687 192.777344 196.113281 192.777344 108.308593 0 196.109375-86.308594 196.109375-192.777344v-.089844c-.003906-5.925781-1.082032-11.800781-3.078125-17.378906zm0 0" fill="#8c6a5a"/><path d="m75.058594 233.222656c-.328125-6.773437.042968-13.574218 1.253906-20.246094.441406-2.417968.976562-4.777343 1.601562-6.523437 8.941407-24.980469 39.28125-95.925781 97.738282-104.019531.582031-.078125 1.15625-.148438 1.734375-.21875-9.664063-1.328125-20.523438-1.457032-32.640625.21875-58.457032 8.09375-88.796875 79.039062-97.738282 104.019531-1.019531 2.855469-1.796874 5.785156-2.316406 8.757813-1.738281-.25-3.527344-.386719-5.386718-.386719-21.707032 0-39.304688 17.597656-39.304688 39.304687 0 21.707032 17.597656 39.300782 39.304688 39.300782 6.121093 0 11.589843-1.398438 16.285156-3.898438 27.308594 74.167969 99.578125 127.167969 184.449218 127.167969 5.203126 0 10.355469-.203125 15.453126-.59375-97.972657-7.507813-175.738282-85.789063-180.433594-182.882813zm0 0" fill="#7f6052"/><path d="m335.335938 268.636719c-4.269532 0-7.726563-3.460938-7.726563-7.726563v-16.476562c0-4.265625 3.457031-7.726563 7.726563-7.726563 4.265624 0 7.726562 3.460938 7.726562 7.726563v16.476562c0 4.265625-3.460938 7.726563-7.726562 7.726563zm0 0" fill="#394048"/><path d="m347.953125 295.867188h-25.238281c-4.265625 0-7.726563-3.457032-7.726563-7.722657 0-4.269531 3.460938-7.726562 7.726563-7.726562h25.238281c4.265625 0 7.726563 3.457031 7.726563 7.726562 0 4.265625-3.460938 7.722657-7.726563 7.722657zm0 0" fill="#e98e8f"/><path d="m144.746094 268.636719c-4.265625 0-7.726563-3.460938-7.726563-7.726563v-16.476562c0-4.265625 3.460938-7.726563 7.726563-7.726563 4.269531 0 7.726562 3.460938 7.726562 7.726563v16.476562c0 4.265625-3.457031 7.726563-7.726562 7.726563zm0 0" fill="#394048"/><path d="m157.367188 295.867188h-25.238282c-4.265625 0-7.726562-3.457032-7.726562-7.722657 0-4.269531 3.460937-7.726562 7.726562-7.726562h25.238282c4.265624 0 7.726562 3.457031 7.726562 7.726562 0 4.265625-3.460938 7.722657-7.726562 7.722657zm0 0" fill="#e98e8f"/><path d="m240.039062 294.824219c-8.871093 0-17.203124-3.714844-22.859374-10.183594-2.808594-3.214844-2.480469-8.09375.730468-10.902344 3.214844-2.808593 8.09375-2.480469 10.902344.730469 2.722656 3.113281 6.816406 4.898438 11.226562 4.898438 4.414063 0 8.507813-1.785157 11.230469-4.898438 2.804688-3.210938 7.6875-3.539062 10.902344-.730469 3.210937 2.804688 3.539063 7.6875.730469 10.902344-5.65625 6.472656-13.988282 10.183594-22.863282 10.183594zm0 0" fill="#394048"/><path d="m74.824219 289.847656c0 10.5625-8.5625 19.125-19.125 19.125s-19.125-8.5625-19.125-19.125 8.5625-19.128906 19.125-19.128906 19.125 8.566406 19.125 19.128906zm0 0" fill="#f3c44b"/><path d="m443.507812 289.847656c0 10.5625-8.5625 19.125-19.125 19.125s-19.125-8.5625-19.125-19.125 8.5625-19.128906 19.125-19.128906 19.125 8.566406 19.125 19.128906zm0 0" fill="#f3c44b"/><path d="m119.070312 405.621094h30.824219v87.988281h-30.824219zm0 0" fill="#394048"/><path d="m134.480469 475.398438c-20.113281 0-36.421875 16.308593-36.421875 36.421874h72.847656c0-20.113281-16.308594-36.421874-36.425781-36.421874zm0 0" fill="#8c6a5a"/><path d="m134.480469 318.996094c-19.902344 0-36.039063 16.136718-36.039063 36.039062v38.582032h72.082032v-38.582032c0-19.902344-16.136719-36.039062-36.042969-36.039062zm0 0" fill="#394048"/><path d="m149.933594 322.46875c-4.683594-2.222656-9.921875-3.472656-15.453125-3.472656-19.902344 0-36.039063 16.136718-36.039063 36.039062v38.582032h30.90625v-38.582032c0-14.375 8.414063-26.777344 20.585938-32.566406zm0 0" fill="#31363e"/><path d="m170.523438 363.113281h-72.082032c-8.5625 0-15.503906 6.941407-15.503906 15.503907v54.007812c0 8.558594 6.941406 15.5 15.503906 15.5h72.082032c8.5625 0 15.503906-6.941406 15.503906-15.5v-54.007812c0-8.5625-6.941406-15.503907-15.503906-15.503907zm0 0" fill="#e16668"/><path d="m113.84375 432.625v-54.007812c0-8.5625 6.941406-15.503907 15.503906-15.503907h-30.90625c-8.5625 0-15.503906 6.941407-15.503906 15.503907v54.007812c0 8.558594 6.941406 15.5 15.503906 15.5h30.90625c-8.5625 0-15.503906-6.941406-15.503906-15.5zm0 0" fill="#d05e60"/></svg>