<svg height="512pt" viewBox="0 0 512 512" width="512pt" xmlns="http://www.w3.org/2000/svg"><path d="m512 256c0 141.386719-114.613281 256-256 256s-256-114.613281-256-256 114.613281-256 256-256 256 114.613281 256 256zm0 0" fill="#ff4f4a"/><path d="m267.367188 511.734375c114.605468-5.007813 209.640624-85.351563 236.8125-192.746094l-195.835938-195.835937-143.492188 93.90625 20.613282 20.632812 17.355468 26.722656 21.941407 21.945313-91.128907 91.640625zm0 0" fill="#b40f0c"/><path d="m192.816406 223.289062h-12.285156c-12.632812 0-22.910156-10.277343-22.910156-22.910156 0-12.632812 10.277344-22.910156 22.910156-22.910156h12.113281zm0 0" fill="#44261d"/><path d="m331.46875 223.289062h-12.285156l.171875-45.820312h12.113281c12.632812 0 22.910156 10.277344 22.910156 22.910156 0 12.632813-10.277344 22.910156-22.910156 22.910156zm0 0" fill="#331d17"/><path d="m308.34375 123.152344h-84.6875l32.34375 147.035156h46.78125l2.269531-1.941406c16.789063-14.371094 26.417969-35.277344 26.417969-57.355469v-33.421875c0-21.308594-8.878906-40.582031-23.125-54.316406zm0 0" fill="#44261d"/><path d="m308.34375 123.152344c-.5625 2.328125-1.460938 4.621094-2.71875 6.796875-5.394531 9.355469-15.832031 13.980469-25.902344 12.441406-3.703125 9.488281-12.925781 16.210937-23.722656 16.210937l-16.171875-28.300781 16.171875-28.300781c20.304688 0 38.765625 8.058594 52.34375 21.152344zm0 0" fill="#331d17"/><path d="m203.65625 123.152344c-14.246094 13.734375-23.125 33.007812-23.125 54.316406v33.421875c0 22.078125 9.628906 42.984375 26.417969 57.355469l2.269531 1.941406h46.78125v-147.035156zm0 0" fill="#5b3227"/><path d="m256 102v56.601562c-10.796875 0-20.019531-6.722656-23.722656-16.210937-10.070313 1.535156-20.507813-3.089844-25.902344-12.441406-1.257812-2.179688-2.15625-4.46875-2.71875-6.796875 13.578125-13.09375 32.039062-21.152344 52.34375-21.152344zm0 0" fill="#44261d"/><path d="m378.367188 359.132812v18.867188h-40.429688l-32.34375-42.027344 32.34375-42.023437c23.941406 11.929687 40.429688 36.664062 40.429688 65.183593zm0 0" fill="#71b04a"/><path d="m337.9375 293.949219v84.050781h-81.9375l-32.34375-42.046875 81.9375-49.59375c11.609375 0 22.59375 2.730469 32.34375 7.589844zm0 0" fill="#82cc56"/><path d="m133.632812 359.132812v18.867188h40.429688l32.34375-42.027344-32.34375-42.023437c-23.941406 11.929687-40.429688 36.664062-40.429688 65.183593zm0 0" fill="#82cc56"/><path d="m174.0625 293.949219v84.050781h81.9375v-42.046875l-49.59375-49.59375c-11.609375 0-22.59375 2.730469-32.34375 7.589844zm0 0" fill="#9ce072"/><path d="m289.421875 286.359375h16.171875c0 27.34375-22.246094 49.59375-49.59375 49.59375l-10.898438-32.882813zm0 0" fill="#71b04a"/><path d="m206.40625 286.359375h16.171875l33.421875 33.421875v16.171875c-27.347656 0-49.59375-22.25-49.59375-49.59375zm0 0" fill="#82cc56"/><path d="m256 286.359375h33.421875c0 18.425781-14.992187 33.421875-33.421875 33.421875l-10.898438-16.710938zm0 0" fill="#44261d"/><path d="m222.578125 286.359375h33.421875v33.421875c-18.429688 0-33.421875-14.992188-33.421875-33.421875zm0 0" fill="#5b3227"/></svg>