<svg height="512pt" viewBox="-15 0 511 512" width="512pt" xmlns="http://www.w3.org/2000/svg"><path d="m194.894531 408.136719h-10.304687s-1.554688 1.101562-4.121094 3.308593c-7.589844 6.53125-24.03125 22.765626-34.789062 48.625-6.816407 16.410157-10.195313 34.179688-10.195313 51.929688h59.410156l21.300781-45.84375zm0 0" fill="#e8e8e8"/><path d="m287.980469 408.136719h10.300781s1.554688 1.101562 4.121094 3.308593c7.59375 6.53125 24.035156 22.765626 34.789062 48.625 6.820313 16.410157 10.199219 34.179688 10.199219 51.929688h-59.410156l-21.304688-45.84375zm0 0" fill="#e8e8e8"/><path d="m194.894531 408.136719h93.085938v103.863281h-93.085938zm0 0" fill="#52b2de"/><path d="m268.933594 416.339844c0 15.1875-12.3125 27.496094-27.496094 27.496094-15.1875 0-27.496094-12.308594-27.496094-27.496094 0-15.183594 12.308594-27.496094 27.496094-27.496094 15.183594 0 27.496094 12.3125 27.496094 27.496094zm0 0" fill="#7f6052"/><path d="m455.167969 149.550781-213.730469-30.851562-213.734375 30.851562c-8.199219 23.25-12.453125 47.957031-12.453125 73.289063h452.375c0-25.332032-4.257812-50.039063-12.457031-73.289063zm0 0" fill="#31363e"/><path d="m401.195312 65.085938c-42.699218-41.96875-99.441406-65.085938-159.757812-65.085938s-117.058594 23.117188-159.761719 65.085938c-7.3125 7.191406-14.070312 14.792968-20.242187 22.757812l180.003906 30.855469 180.003906-30.855469c-6.171875-7.964844-12.929687-15.566406-20.246094-22.757812zm0 0" fill="#394048"/><path d="m92.339844 87.84375c6.167968-7.964844 12.925781-15.566406 20.242187-22.757812 39.03125-38.363282 89.800781-60.964844 144.308594-64.566407-5.121094-.335937-10.273437-.519531-15.453125-.519531-60.316406 0-117.058594 23.117188-159.761719 65.085938-7.3125 7.191406-14.070312 14.792968-20.242187 22.757812l180.003906 30.855469 15.453125-2.648438zm0 0" fill="#31363e"/><path d="m482.375 253.164062c0 21.785157-17.664062 39.449219-39.453125 39.449219-21.785156 0-39.449219-17.664062-39.449219-39.449219 0-21.789062 17.664063-39.449218 39.449219-39.449218 21.789063 0 39.453125 17.660156 39.453125 39.449218zm0 0" fill="#7f6052"/><path d="m75.507812 118.699219c-19.566406 30.0625-30.914062 65.800781-30.914062 104.140625 0 106.867187 88.128906 193.5 196.84375 193.5 108.710938 0 196.84375-86.632813 196.84375-193.5 0-38.339844-11.347656-74.078125-30.917969-104.140625zm0 0" fill="#8c6a5a"/><path d="m75.5 222.839844c0-38.339844 11.34375-74.078125 30.914062-104.140625h-30.90625c-18.058593 27.75-29.109374 60.328125-30.707031 95.332031-1.566406-.203125-3.183593-.316406-4.851562-.316406-21.785157 0-39.449219 17.660156-39.449219 39.449218 0 21.785157 17.664062 39.449219 39.449219 39.449219 6.144531 0 11.632812-1.40625 16.347656-3.914062 27.410156 74.445312 99.953125 127.640625 185.140625 127.640625 5.199219 0 10.351562-.199219 15.453125-.589844-101.492187-7.75-181.390625-91.15625-181.390625-192.910156zm0 0" fill="#7f6052"/><path d="m335.007812 260.039062c-4.269531 0-7.726562-3.460937-7.726562-7.726562v-18.195312c0-4.265626 3.457031-7.722657 7.726562-7.722657 4.265626 0 7.722657 3.457031 7.722657 7.722657v18.195312c0 4.265625-3.457031 7.726562-7.722657 7.726562zm0 0" fill="#394048"/><path d="m347.398438 286.78125h-24.78125c-4.269532 0-7.726563-3.460938-7.726563-7.726562 0-4.269532 3.457031-7.726563 7.726563-7.726563h24.78125c4.265624 0 7.726562 3.457031 7.726562 7.726563 0 4.265624-3.460938 7.726562-7.726562 7.726562zm0 0" fill="#e98e8f"/><path d="m147.867188 260.039062c-4.269532 0-7.726563-3.460937-7.726563-7.726562v-18.195312c0-4.265626 3.457031-7.722657 7.726563-7.722657 4.269531 0 7.726562 3.457031 7.726562 7.722657v18.195312c0 4.265625-3.457031 7.726562-7.726562 7.726562zm0 0" fill="#394048"/><path d="m160.257812 286.78125h-24.78125c-4.269531 0-7.726562-3.460938-7.726562-7.726562 0-4.269532 3.457031-7.726563 7.726562-7.726563h24.78125c4.265626 0 7.726563 3.457031 7.726563 7.726563 0 4.265624-3.460937 7.726562-7.726563 7.726562zm0 0" fill="#e98e8f"/><path d="m241.4375 285.75c-8.753906 0-16.976562-3.660156-22.554688-10.042969-2.808593-3.214843-2.480468-8.097656.734376-10.902343 3.210937-2.808594 8.09375-2.480469 10.902343.730468 2.644531 3.027344 6.625 4.765625 10.917969 4.765625s8.273438-1.738281 10.917969-4.765625c2.808593-3.214844 7.691406-3.539062 10.902343-.730468 3.210938 2.804687 3.539063 7.6875.730469 10.902343-5.578125 6.382813-13.800781 10.042969-22.550781 10.042969zm0 0" fill="#394048"/><path d="m455.167969 149.550781h-427.464844c7.789063-22.097656 19.121094-42.894531 33.730469-61.707031h360.007812c14.605469 18.8125 25.9375 39.609375 33.726563 61.707031zm0 0" fill="#d6d6d6"/><path d="m61.433594 87.84375c-14.609375 18.8125-25.941406 39.609375-33.730469 61.707031h30.90625c7.789063-22.097656 19.121094-42.894531 33.730469-61.707031zm0 0" fill="#bfbfbf"/><path d="m298.097656 118.699219c0 31.289062-25.367187 56.660156-56.660156 56.660156s-56.660156-25.371094-56.660156-56.660156c0-31.292969 25.367187-56.660157 56.660156-56.660157s56.660156 25.367188 56.660156 56.660157zm0 0" fill="#e8e8e8"/><path d="m265.128906 118.699219c0 13.085937-10.605468 23.691406-23.691406 23.691406s-23.695312-10.605469-23.695312-23.691406c0-13.085938 10.609374-23.695313 23.695312-23.695313s23.691406 10.609375 23.691406 23.695313zm0 0" fill="#52b2de"/></svg>