<svg height="512" viewBox="0 0 40 58" width="512" xmlns="http://www.w3.org/2000/svg"><g id="019---Native-African-Woman" fill="none"><path id="Shape" d="m7 23.06v-2.06c0-7.1797017 5.8202983-13 13-13s13 5.8202983 13 13v2.06l-3.333 5h-19.834z" fill="#e64c3c"/><path id="Shape" d="m30 43c5.5228475 0 10 4.4771525 10 10v3c-.0032948 1.1032019-.8967981 1.9967052-2 2h-36c-1.10320187-.0032948-1.9967052-.8967981-2-2v-3c0-5.5228475 4.4771525-10 10-10z" fill="#805333"/><path id="Shape" d="m26 39.01v3.99s0 5-6 5-6-5-6-5v-3.99z" fill="#603e26"/><path id="Shape" d="m30 24.06c.869241-.9604707 2.2365187-1.2933731 3.45-.84.731.339.6 1.86.37 3.03-.2532604 1.4778017-.9590807 2.8405241-2.02 3.9-.6133083.5919036-1.337043 1.0574043-2.13 1.37h-19.34c-.79295702-.3125957-1.51669169-.7780964-2.13-1.37-1.06091926-1.0594759-1.76673957-2.4221983-2.02-3.9-.23-1.17-.361-2.691.37-3.03 1.21348129-.4533731 2.58075895-.1204707 3.45.84z" fill="#603e26"/><path id="Shape" d="m30 23.882v5.753c-.0008069.5883694-.0960171 1.1727979-.282 1.731-.6491697 1.941196-1.4673028 3.821731-2.445 5.62-1.691 3.047-4.146 6.014-7.273 6.014s-5.582-2.967-7.273-6.014c-.9776972-1.798269-1.7958303-3.678804-2.445-5.62-.1859829-.5582021-.2811931-1.1426306-.282-1.731v-5.753s0-7.882 10-7.882 10 7.882 10 7.882z" fill="#805333"/><path id="Shape" d="m24.573 13.9c-1.4394966-.6329734-3.0010004-.9402889-4.573-.9-1.5719996-.0402889-3.1335034.2670266-4.573.9-.4967066.2217844-1.0795894.0058497-1.3119184-.4860131s-.0288768-1.079219.4579184-1.3219869c1.7062122-.7601455 3.5595701-1.1330711 5.427-1.092 1.8680312-.0385572 3.7214152.3371057 5.427 1.1.4867952.2427679.6902474.8301241.4579184 1.3219869s-.8152118.7077975-1.3119184.4860131z" fill="#fb7b76"/><path id="Shape" d="m17.06 5.59c-1.6108902.61177272-3.4053802.51369331-4.94-.27-1.4914759-.81012219-2.70942031-2.04407391-3.5-3.546-.16343176-.27931424-.18159436-.62044877-.04874484-.91553755.13284953-.29508877.40028536-.50764635.71774484-.57046245 1.7339037-.43028033 3.5524406-.37841105 5.259.15 1.3178609.49387354 2.4310115 1.41715447 3.16 2.621h4.58c.7289885-1.20384553 1.8421391-2.12712646 3.16-2.621 1.7065594-.52841105 3.5250963-.58028033 5.259-.15.3174595.0628161.5848953.27537368.7177448.57046245.1328496.29508878.114687.63622331-.0487448.91553755-.7905797 1.50192609-2.0085241 2.73587781-3.5 3.546-1.5346198.78369331-3.3291098.88177272-4.94.27z" fill="#e64c3c"/><path id="Shape" d="m8.2 30.15c-.28902645-.2771969-.55026832-.581979-.78-.91-.0196275.1372329-.00939436.2770858.03.41.03343463.1136501.05027523.2315342.05.35 0 .6066934-.36546327 1.1536478-.92597485 1.3858193-.56051159.2321715-1.20568833.1038379-1.63468532-.3251591-.428997-.428997-.55733063-1.0741738-.32515913-1.6346853.2321715-.5605116.77912593-.9259749 1.3858193-.9259749.30893627.0008386.60978911.0987907.86.28.10881854.0755901.23097227.1298806.36.16-.46541165-.7468881-.7970436-1.5691999-.98-2.43-.0797142-.0083211-.15986989-.0116609-.24-.01-1.80062208-.0041524-3.31058411 1.3585739-3.4905468 3.1501851-.17996268 1.7916111 1.02880362 3.4274266 2.7942791 3.7814795 1.76547549.3540528 3.5115088-.6891997 4.0362677-2.4116646-.4128849-.2441688-.79552839-.5361862-1.14-.87z" fill="#f3d55b"/><path id="Shape" d="m34 26.5c-.0801301-.0016609-.1602858.0016789-.24.01-.1829564.8608001-.5145883 1.6831119-.98 2.43.1290277-.0301194.2511815-.0844099.36-.16.2502109-.1812093.5510637-.2791614.86-.28.8284271 0 1.5.6715729 1.5 1.5s-.6715729 1.5-1.5 1.5-1.5-.6715729-1.5-1.5c-.0002752-.1184658.0165654-.2363499.05-.35.0393944-.1329142.0496275-.2727671.03-.41-.5076323.7218139-1.1618895 1.3283648-1.92 1.78.5247589 1.7224649 2.2707922 2.7657174 4.0362677 2.4116646 1.7654755-.3540529 2.9742418-1.9898684 2.7942791-3.7814795-.1799627-1.7916112-1.6899247-3.1543375-3.4905468-3.1501851z" fill="#f3d55b"/><path id="Shape" d="m34 56c-.5522847 0-1-.4477153-1-1v-4c0-.5522847.4477153-1 1-1s1 .4477153 1 1v4c0 .5522847-.4477153 1-1 1z" fill="#603e26"/><circle id="Oval" cx="20" cy="5" fill="#c03a2b" r="3"/><path id="Shape" d="m35 55v3h-30v-13.66c1.51954756-.8792676 3.24439927-1.3415278 5-1.34h1v6c0 1.6568542 1.3431458 3 3 3h18c1.6568542 0 3 1.3431458 3 3z" fill="#b49aca"/></g></svg>