<svg id="Layer_1" enable-background="new 0 0 511.999 511.999" height="512" viewBox="0 0 511.999 511.999" width="512" xmlns="http://www.w3.org/2000/svg"><g><g clip-rule="evenodd" fill-rule="evenodd"><path d="m199.686 54.141c55.287 71.18 115.997 76.002 255.022 85.042 52.13-81.837-175.161-191.699-255.022-85.042z" fill="#e0ef9b"/><path d="m454.708 139.184c-139.025-9.04-199.735-13.862-255.022-85.042-27.926-4.821-50.955 18.144-50.955 39.238 63.745 98.238 228.876 138.016 292.622 157.301 46.138-37.367 13.355-111.497 13.355-111.497z" fill="#cbe558"/><path d="m441.352 250.68c-63.745-19.286-228.876-59.063-292.622-157.301-27.319 7.835-41.89 21.094-45.536 52.733 49.683 92.196 145.589 68.439 237.253 189.045 62.526 45.896 131.374-4.239 100.905-84.477z" fill="#88df8e"/><path d="m340.447 335.157c-91.664-120.605-187.57-96.849-237.253-189.045-47.96 33.75.607 101.251-15.178 127.769-15.784 26.518-60.71 56.05-33.39 75.336 0 0 17.302 5.725 16.392 25.614-.91 19.888 10.625 15.368 14.57 18.984 0 0-9.106 17.177 6.375 24.108 0 0-10.928 74.13 52.514 39.777 17.249-9.34 31.222-17.455 42.425-24.321 0 17.404 4.581 43.605-1.533 68.618h184.648c-57.067-56.651-45.354-139.116-29.57-166.84zm-104.506 7.355c0-6.315 1.321-12.321 3.698-17.76 6.852 15.68 22.496 26.64 40.702 26.64s33.85-10.96 40.702-26.64c2.377 5.439 3.698 11.445 3.698 17.76 0 24.521-19.879 44.4-44.4 44.4s-44.4-19.878-44.4-44.4z" fill="#bb6b57"/><path d="m280.341 351.393c-18.206 0-33.85-10.96-40.702-26.64-2.377 5.439-3.698 11.445-3.698 17.76 0 24.521 19.879 44.4 44.4 44.4s44.4-19.879 44.4-44.4c0-6.315-1.321-12.321-3.698-17.76-6.852 15.68-22.496 26.64-40.702 26.64z" fill="#ffc144"/></g><g><path d="m475.279 179.879c-1.838-17.561-6.73-32.525-9.484-39.887 16.955-32.198.781-70.37-43.245-100.811-33.48-23.148-77.686-37.759-118.248-39.082-45.955-1.495-84.404 13.903-109.023 43.492-13.676-.77-27.25 3.762-38.013 12.826-9.424 7.936-15.764 18.538-17.815 29.401-13.013 4.489-22.57 10.376-29.758 18.267-8.272 9.082-13.469 21.078-15.843 36.556-30.743 24.731-22.713 62.803-16.787 90.877 3.157 14.958 6.422 30.426 2.361 37.249-4.174 7.012-11.141 14.84-17.877 22.41-13.996 15.728-27.216 30.583-25.377 46.584.886 7.703 5.155 14.306 12.689 19.626.806.568 1.69 1.015 2.626 1.324.412.136 10.101 3.484 9.544 15.662-.732 15.975 5.605 22.506 12.271 25.534-.591 3.866-.588 8.381.961 12.885 1.054 3.065 3.115 6.929 7.146 10.278-.774 12.118-.138 36.838 16.122 48.213 12.409 8.68 29.808 7.071 51.71-4.789 10.662-5.773 20.1-11.093 28.429-15.951.971 15.287 2.023 32.567-2.012 49.081-.729 2.982-.048 6.134 1.849 8.549 1.896 2.415 4.795 3.825 7.865 3.825h184.647c4.052 0 7.702-2.444 9.246-6.19 1.543-3.745.674-8.052-2.201-10.906-49.192-48.836-42.602-115.488-32.238-144.957 13.288 7.694 27.272 12.032 41.002 12.625 1.115.048 2.227.072 3.331.072 15.507 0 29.889-4.729 41.774-13.769 20.933-15.922 37.11-49.019 22.076-95.203 17.825-17.502 25.51-42.844 22.272-73.791zm-64.105-124.246c13.16 9.098 53.098 40.236 37.851 73.16-125.123-8.152-185.221-13.019-236.483-74.616 48.599-55.125 145.197-35.493 198.632 1.456zm-63.049 436.366h-150.761c1.996-15.443 1.04-30.504.238-43.127-.223-3.503-.437-6.883-.568-10.004 26.65-16.658 36.255-25.452 36.817-25.975 4.034-3.751 4.263-10.045.527-14.094-3.736-4.048-10.058-4.3-14.117-.58-.188.173-19.592 17.682-80.546 50.688-14.268 7.727-25.171 9.856-30.709 5.998-8.42-5.869-8.451-26.479-7.149-35.522.652-4.432-1.72-8.756-5.808-10.586-2.361-1.058-2.727-2.089-2.864-2.478-.764-2.15.313-5.985 1.238-7.819 2.243-4.044 1.33-8.932-2.079-12.057-2.951-2.704-6.331-3.522-8.799-4.12-.62-.151-1.504-.365-1.979-.541-.227-.566-.748-2.354-.559-6.493.931-20.334-12.823-31.309-21.534-34.927-3.16-2.494-3.363-4.268-3.435-4.885-.817-7.108 10.974-20.357 20.448-31.004 7.36-8.271 14.973-16.824 20.122-25.477 8.059-13.537 4.154-32.03.021-51.609-5.039-23.874-10.227-48.451 4.143-65.652 25.389 39.805 60.522 57.216 97.545 75.561 35.741 17.71 75.589 37.474 115.112 80.973-.626.735-1.151 1.566-1.55 2.48-5.48 12.54-17.859 20.644-31.538 20.644-13.68 0-26.059-8.104-31.539-20.644-1.591-3.643-5.188-5.996-9.163-5.996s-7.571 2.354-9.163 5.995c-3.01 6.886-4.535 14.208-4.535 21.765 0 29.996 24.404 54.399 54.4 54.399 14.621 0 27.903-5.809 37.689-15.227-.663 8.352-.768 17.323-.092 26.759 1.641 22.909 8.458 54.365 30.187 83.555zm-34.151-142.247c-3.333 15.505-17.147 27.16-33.633 27.16s-30.301-11.656-33.634-27.16c9.401 7.391 21.177 11.641 33.634 11.641 12.456-.001 24.232-4.25 33.633-11.641zm104.849-16.797c-19.245 14.64-46.486 12.659-71.354-5.073-48.17-62.863-97.083-87.106-140.271-108.507-38.05-18.854-71.021-35.21-93.66-75.241 3.059-21.207 11.423-31.881 31.123-38.955 20.51 28.927 51.276 55.292 91.583 78.448 1.57.902 3.282 1.331 4.972 1.331 3.464 0 6.832-1.802 8.681-5.021 2.751-4.789 1.1-10.901-3.689-13.652-39.184-22.511-68.531-47.943-87.285-75.631.907-6.677 5.034-13.723 11.226-18.939 4.19-3.528 12.635-8.916 24.253-8.13 27.555 34.384 57.281 54.221 98.657 65.997 38.34 10.913 84.169 14.552 154.638 19.164 5.733 16.053 19.215 63.32-8.822 90.757-4.564-1.35-9.527-2.788-14.703-4.288-25.832-7.485-61.21-17.737-97.813-31.689-5.162-1.97-10.939.622-12.906 5.782s.622 10.938 5.783 12.906c37.371 14.244 73.205 24.629 99.37 32.211 5.307 1.537 10.393 3.011 15.018 4.381 10.347 31.082 4.853 59.2-14.801 74.149z"/><path d="m125.246 256.592h-.007c-5.522 0-9.997 4.478-9.997 10s4.481 10 10.004 10c5.522 0 10-4.478 10-10s-4.478-10-10-10z"/><path d="m281.273 185.507h-.008c-5.522 0-9.996 4.478-9.996 10s4.481 10 10.004 10 10-4.478 10-10-4.478-10-10-10z"/></g></g></svg>