<svg height="512" viewBox="0 0 42 60" width="512" xmlns="http://www.w3.org/2000/svg"><g id="019---Native-African-Woman" fill="none"><g id="Icons" transform="translate(1 1)"><path id="Shape" d="m33 21v2.06c-1.1045016-.1919098-2.2315445.1837712-3 1v-.18s0-7.88-10-7.88c-.5008828-.0030475-1.0015779.0203183-1.5.07-8.5.74-8.5 7.81-8.5 7.81v.18c-.76845546-.8162288-1.89549837-1.1919098-3-1v-2.06c0-7.1797017 5.8202983-13 13-13s13 5.8202983 13 13z" fill="#f44335"/><path id="Shape" d="m18.529 8.088c6.5351479.79070664 11.4555446 6.3292091 11.471 12.912v2.06c-.177-.04 0 0 0 1 .7684555-.8162288 1.8954984-1.1919098 3-1v-2.06c-.0031961-3.7025488-1.5842986-7.2282316-4.3469796-9.6932815-2.762681-2.46504992-6.4450341-3.63577631-10.1240204-3.2187185z" fill="#c81e1e"/><path id="Shape" d="m40 53v3c-.0032948 1.1032019-.8967981 1.9967052-2 2h-36c-1.10320187-.0032948-1.9967052-.8967981-2-2v-3c0-5.5228475 4.4771525-10 10-10h20c5.5228475 0 10 4.4771525 10 10z" fill="#6d4122"/><path id="Shape" d="m37 53v3c-.0032948 1.1032019-.8967981 1.9967052-2 2h-33c-1.10320187-.0032948-1.9967052-.8967981-2-2v-3c0-5.5228475 4.4771525-10 10-10h17c2.6521649 0 5.195704 1.0535684 7.0710678 2.9289322s2.9289322 4.4189029 2.9289322 7.0710678z" fill="#91562d"/><path id="Shape" d="m33.45 23.22c-1.2131447-.4589393-2.5836166-.1252592-3.45.84v-.18s0-7.88-10-7.88c-.5008828-.0030475-1.0015779.0203183-1.5.07-8.5.74-8.5 7.81-8.5 7.81v.18c-.86638339-.9652592-2.23685525-1.2989393-3.45-.84-.73.34-.6 1.86-.37 3.03.35619349 2.3660225 1.93345767 4.368958 4.15 5.27.9007199 2.6434704 2.133945 5.1616691 3.67 7.494v3.986s0 5 6 5 6-5 6-5v-3.981c1.5640023-2.3179778 2.7981491-4.8421395 3.667-7.5 2.2136029-.9056532 3.7899737-2.9060082 4.153-5.27.23-1.169.36-2.689-.37-3.029z" fill="#6d4122"/><path id="Shape" d="m27 23.88c0 6.029.094 6.348-.28 7.49-1.349 4.013-4.194 10.136-8.22 11.4-4.026-1.264-6.871-7.387-8.22-11.4-.373-1.14-.28-1.378-.28-7.49 0 0 0-7.07 8.5-7.81 8.5.74 8.5 7.81 8.5 7.81z" fill="#91562d"/><path id="Shape" d="m17.06 5.59c-1.6108902.61177272-3.4053802.51369331-4.94-.27-1.4914759-.81012219-2.70942031-2.04407391-3.5-3.546-.16343176-.27931424-.18159436-.62044877-.04874484-.91553755.13284953-.29508877.40028536-.50764635.71774484-.57046245 1.7339037-.43028033 3.5524406-.37841105 5.259.15 1.3178609.49387354 2.4310115 1.41715447 3.16 2.621h4.58c.7289885-1.20384553 1.8421391-2.12712646 3.16-2.621 1.7065594-.52841105 3.5250963-.58028033 5.259-.15.3174595.0628161.5848953.27537368.7177448.57046245.1328496.29508878.114687.63622331-.0487448.91553755-.7905797 1.50192609-2.0085241 2.73587781-3.5 3.546-1.5346198.78369331-3.3291098.88177272-4.94.27z" fill="#c81e1e"/><circle id="Oval" cx="20" cy="5" fill="#f44335" r="3"/><path id="Shape" d="m35 55v3h-30v-13.66c.93186965-.5395265 1.94499493-.9245141 3-1.14.98914891-.1804669 1.99564884-.2475669 3-.2v6c0 1.6568542 1.3431458 3 3 3h18c1.6568542 0 3 1.3431458 3 3z" fill="#6a1b9a"/><path id="Shape" d="m32 55v3h-27v-13.66c.93186965-.5395265 1.94499493-.9245141 3-1.14v5.8c0 1.6568542 1.34314575 3 3 3h18c1.6568542 0 3 1.3431458 3 3z" fill="#9d27b0"/></g><g id="stroke" fill="#000"><path id="Shape" d="m5.617 44.417c-.017.007-.03.02-.046.028-3.43965901 1.9519218-5.56671299 5.6001-5.571 9.555v3c0 1.6568542 1.34314575 3 3 3h36c1.6568542 0 3-1.3431458 3-3v-3c-.0071635-6.0721626-4.9278374-10.9928365-11-11h-3v-2.684c1.4522306-2.1958758 2.6176836-4.5684531 3.468-7.06.2751434-.1265967.5423064-.2698628.8-.429.6543364 1.6141305 2.3959624 2.501522 4.0864263 2.0821117 1.690464-.4194102 2.8153128-2.0179846 2.6392647-3.7507801-.1760482-1.7327955-1.5994172-3.0724766-3.339691-3.1433316.049-.192.113-.374.151-.573.158-.81.614-3.208-.8-4.038v-1.404c.0039462-6.5002929-4.4742292-12.14515629-10.805-13.62.647-.866-.208-.38 1.622-.38 1.1902437-.01985795 2.3644092-.27828996 3.453-.76 2.825-1.201 4.567-5.073 4.639-5.24.1150407-.26149766.1127459-.55971262-.0063054-.81940892-.1190514-.25969631-.3434907-.4560746-.6166946-.53959108-.181-.055-4.431-1.323-7.234-.123-1.1340295.46277326-2.1496773 1.17427347-2.972 2.082-1.2738672-.80355343-2.8961328-.80355343-4.17 0-.8223227-.90772653-1.8379705-1.61922674-2.972-2.082-2.8-1.2-7.052.068-7.234.123-.27320394.08351648-.49764322.27989477-.61669458.53959108-.11905136.2596963-.12134615.55791126-.00630542.81940892.072.165 1.812 4.037 4.641 5.237 1.4839072.68697535 3.1425222.90333161 4.753.62.0947583.18241137.2034123.35726083.325.523-6.3228423 1.48734903-10.7949652 7.124583-10.805 13.62v1.4c-1.417.826-.961 3.227-.8 4.034.038.2.1.384.153.577-1.73489281.0747695-3.15159757 1.4122966-3.32590925 3.1400289-.17431169 1.7277324.94667478 3.3212883 2.63166991 3.7410918 1.68499512.4198035 3.42258846-.4615595 4.07923934-2.0691207.25769357.1591372.5248566.3024033.8.429.8479134 2.4927185 2.0113647 4.8666699 3.462 7.064v2.684c-3.249 0-5.449-.237-8.383 1.417zm-3.617 12.583v-3c.00177278-2.5551572 1.0930382-4.9883154 3-6.689v10.689h-2c-.55228475 0-1-.4477153-1-1zm5 1v-12.05c1.24118502-.623773 2.61088799-.9490775 4-.95v5c0 2.209139 1.790861 4 4 4h18c1.1045695 0 2 .8954305 2 2v2zm33-4v3c0 .5522847-.4477153 1-1 1h-2v-6c0-.5522847-.4477153-1-1-1s-1 .4477153-1 1v.556c-.6053465-.3599241-1.2957468-.5518554-2-.556h-18c-1.1045695 0-2-.8954305-2-2v-5h1.1c.408 2.13 2.159 5 6.9 5s6.488-2.87 6.9-5h3.1c4.9682782.0055111 8.9944889 4.0317218 9 9zm-14-11.281v1.275c-.005.406-.191 4.006-5 4.006s-5-3.6-5-4v-1.281c3.1 2.966 6.742 3.123 10 0zm7.938-17.63c.1115658.6570535.0774279 1.330594-.1 1.973-.2137558 1.3223666-.8601889 2.5364509-1.838 3.452v-4.976c.5332688-.4584452 1.2574574-.6262267 1.938-.449zm3.062 6.411c0 .8284271-.6715729 1.5-1.5 1.5-.4393629.0021527-.8570626-.1906281-1.1404794-.526365s-.4033709-.7798636-.3275206-1.212635c.2738527-.3279557.5193993-.6785453.734-1.048.4596491-.2714253 1.0297992-.2744901 1.4923397-.0080221.4625405.2664681.7458927.7612328.7416603 1.2950221zm-10.156-29.143c1.5228195-.44179358 3.1354657-.47250079 4.674-.089-.6902829 1.31252235-1.7425597 2.39950482-3.032 3.132-1.0883661.51377332-2.305508.69033727-3.495.507-.017443-.64892415-.19431-1.28358461-.515-1.848.6396008-.75100321 1.4523019-1.33513217 2.368-1.702zm-13.333 3.043c-1.288471-.73276915-2.3397098-1.81975497-3.029-3.132 1.5385143-.38413159 3.151414-.35307447 4.674.09.9154887.3662971 1.7281706.94972583 2.368 1.7-.32069.56441539-.497557 1.19907585-.515 1.848-1.1903699.1839517-2.4085535.00773646-3.498-.506zm5.489.6c0-1.1045695.8954305-2 2-2s2 .8954305 2 2-.8954305 2-2 2-2-.8954305-2-2zm2 4c6.627417 0 12 5.372583 12 12v1.027c-.4187485.0457739-.8282863.1539728-1.215.321-.585-2.541-2.743-7.348-10.785-7.348s-10.2 4.806-10.785 7.347c-.38675799-.166712-.79629824-.2745745-1.215-.32v-1.027c.00716485-6.624447 5.375553-11.9928352 12-12zm-12.839 17.058c-.17711025-.6407517-.21124868-1.312596-.1-1.968.6806872-.1780239 1.40539853-.0105815 1.939.448v4.975c-.97900478-.9159991-1.62589384-2.1313344-1.839-3.455zm-1.661 5.942c-.82842712 0-1.5-.6715729-1.5-1.5-.00423239-.5337893.27911981-1.028554.7416603-1.2950221.46254049-.266468 1.03269065-.2634032 1.4923397.0080221.21460073.3694547.46014726.7200443.734 1.048.07585035.4327714-.04410384.8768981-.32752063 1.212635s-.70111651.5285177-1.14047937.526365zm5.73-.951c-.307-.919-.262-.927-.23-7.163 0-.281.164-6.886 9-6.886s9 6.589 9 6.885c.032 6.379.07 6.267-.23 7.164-1.349 4.029-4.544 10.951-8.77 10.951s-7.42-6.92-8.77-10.951z"/><path id="Shape" d="m16.427 14.9c2.9283083-1.211499 6.2176917-1.211499 9.146 0 .4967066.2217844 1.0795894.0058497 1.3119184-.4860131s.0288768-1.079219-.4579184-1.3219869c-3.4690956-1.4679729-7.3849044-1.4679729-10.854 0-.4867952.2427679-.6902474.8301241-.4579184 1.3219869s.8152118.7077975 1.3119184.4860131z"/></g></g></svg>