<svg id="Capa_1" enable-background="new 0 0 512 512" height="512" viewBox="0 0 512 512" width="512" xmlns="http://www.w3.org/2000/svg"><circle cx="256" cy="256" fill="#966857" r="256"/><path d="m286.082 510.232c127.206-14.893 225.918-123.026 225.918-254.232 0-10.943-.69-21.725-2.023-32.307l-96.973-96.973-16.147 28.983-78.703-78.703-16.06 66.895-66.895-66.895-41.034 120.31-75.894 2.46 168.083 168.083-64.441 78.209z" fill="#704639"/><path d="m239.842 91.604c0-13.983-11.336-25.319-25.319-25.319s-25.319 11.336-25.319 25.319c0 8.132 3.838 15.363 9.797 19.996v43.112h31.045v-43.112c5.957-4.633 9.796-11.864 9.796-19.996z" fill="#ffa300"/><path d="m322.797 91.604c0-13.983-11.336-25.319-25.319-25.319s-25.319 11.336-25.319 25.319c0 8.132 3.838 15.363 9.797 19.996v43.112h31.044v-43.112c5.959-4.633 9.797-11.864 9.797-19.996z" fill="#fe8205"/><ellipse cx="256" cy="412.325" fill="#ffa300" rx="50.964" ry="45.39"/><path d="m256 366.935c-.136 0-.269.008-.405.009v90.762c.135.001.269.009.405.009 28.147 0 50.964-20.322 50.964-45.39s-22.817-45.39-50.964-45.39z" fill="#fe8205"/><path d="m194.165 221.89h-24.58c-38.986 0-70.59-31.604-70.59-70.59v-24.58h24.58c38.986 0 70.59 31.604 70.59 70.59z" fill="#ffa300"/><path d="m317.835 221.89h24.58c38.986 0 70.59-31.604 70.59-70.59v-24.58h-24.58c-38.986 0-70.59 31.604-70.59 70.59z" fill="#fe8205"/><path d="m256 436.511c-32.89 0-61.244-23.129-67.853-55.347l-32.657-159.213c-8.811-42.954 24.004-83.183 67.852-83.183h65.314c43.848 0 76.663 40.228 67.852 83.183l-32.657 159.213c-6.607 32.218-34.962 55.347-67.851 55.347z" fill="#fdba12"/><path d="m288.657 138.768h-33.062v297.734c.135.001.269.009.405.009 32.89 0 61.244-23.129 67.853-55.347l32.657-159.213c8.81-42.954-24.005-83.183-67.853-83.183z" fill="#ffa300"/><circle cx="225.719" cy="380.676" fill="#414952" r="11.196"/><circle cx="286.281" cy="380.676" fill="#23272b" r="11.196"/><circle cx="197.219" cy="237.158" fill="#414952" r="13.741"/><circle cx="314.781" cy="237.158" fill="#23272b" r="13.741"/><path d="m186.809 374.64c16.737-9.322 27.167-28.308 24.212-48.827l-5.948-41.294c-3.292-22.853-22.338-40.007-45.181-41.112z" fill="#ffa300"/><path d="m325.191 374.64 26.918-131.233c-22.844 1.105-41.889 18.259-45.181 41.112l-5.948 41.294c-2.957 20.519 7.474 39.505 24.211 48.827z" fill="#fe8205"/></svg>