<svg id="Capa_1" enable-background="new 0 0 512 512" height="512" viewBox="0 0 512 512" width="512" xmlns="http://www.w3.org/2000/svg"><circle cx="256" cy="256" fill="#00d65b" r="256"/><path d="m512 256c0-19.936-2.281-39.339-6.592-57.965l-66.721-66.721-80.128 8.531-48.24-48.753-39.209 74.057 20.872 119.656-181.648 46.122 129.407 129.407-29.188 22.811 28.268 28.268c5.68.377 11.404.587 17.179.587 141.385 0 256-114.615 256-256z" fill="#06bf51"/><path d="m303.481 483.145h-78.892v-135h30v106.855z" fill="#ffa300"/><path d="m254.589 455v-106.854h-30v135h31.006v-27.566z" fill="#ffa300"/><path d="m255.595 455.58v27.566h47.886z" fill="#fe8205"/><path d="m289.446 483.145h-78.892v-135h30v106.855z" fill="#fdba12"/><path d="m255.595 463.659v19.487h33.851z" fill="#ffa300"/><path d="m96.775 298.889c0-36.984 116.263-66.966 153.248-66.966s66.966 29.982 66.966 66.966-29.982 66.966-66.966 66.966c-109.737 0-153.248-29.982-153.248-66.966z" fill="#fff"/><path d="m316.988 298.889c0-35.106-27.019-63.882-61.393-66.717v133.434c34.375-2.835 61.393-31.611 61.393-66.717z" fill="#e9edf5"/><path d="m438.687 131.315-122.485 19.697c-20.34-5.264-20.34-34.146 0-39.408z" fill="#ffa300"/><circle cx="275.492" cy="128.199" fill="#fff" r="50.903"/><path d="m275.492 77.295c-7.06 0-13.784 1.439-19.896 4.038v93.731c6.112 2.598 12.836 4.037 19.896 4.037 28.113 0 50.903-22.79 50.903-50.903s-22.79-50.903-50.903-50.903z" fill="#e9edf5"/><circle cx="291.902" cy="117.487" fill="#555a66" r="11.96"/><path d="m228.359 147.461 47.133 131.157h38.37l-48.078-127.606z" fill="#fff"/><path d="m313.862 278.618-48.078-127.606-10.189-.967v73.206l19.897 55.367z" fill="#e9edf5"/><path d="m250.023 231.923c-28.501 0-104.07 17.807-137.244 42.9 11.982 28.853 57.425 50.165 149.946 50.165 22.307 0 42.054-10.917 54.224-27.69-.848-36.247-30.475-65.375-66.926-65.375z" fill="#7e8596"/><path d="m255.595 232.17v92.771c2.347.029 4.718.046 7.129.046 22.307 0 42.054-10.917 54.224-27.689-.803-34.379-27.502-62.335-61.353-65.128z" fill="#636978"/></svg>