<svg id="Capa_1" enable-background="new 0 0 512 512" height="512" viewBox="0 0 512 512" width="512" xmlns="http://www.w3.org/2000/svg"><circle cx="256" cy="256" fill="#fdba12" r="256"/><path d="m279.367 510.928c130.431-11.805 232.633-121.422 232.633-254.928 0-27.528-4.363-54.034-12.405-78.884l-66.737-66.737-122.775 230.942-230.941-230.942 16.978 117.672 40.037 40.038-50.247 49.382z" fill="#ff9700"/><path d="m342.397 233.778h21.616c34.284 0 62.077 27.793 62.077 62.077v21.615h-21.616c-34.284 0-62.077-27.793-62.077-62.077z" fill="#5e382c"/><path d="m169.603 233.778h-21.616c-34.284 0-62.077 27.793-62.077 62.077v21.616h21.616c34.284 0 62.077-27.793 62.077-62.077z" fill="#805142"/><path d="m364.163 261.626c0 59.737-48.426 180.85-108.163 180.85s-108.163-121.113-108.163-180.85 48.426-93.964 108.163-93.964 108.163 34.228 108.163 93.964z" fill="#966857"/><path d="m256 167.663c-.135 0-.27.003 0 .003v274.797c-.27.001-.135.013 0 .013 59.737 0 108.163-121.113 108.163-180.85 0-59.736-48.426-93.963-108.163-93.963z" fill="#805142"/><path d="m209.934 309.434c0 10.408-8.437 18.845-18.845 18.845s-18.845-8.437-18.845-18.845z" fill="#333940"/><path d="m339.757 309.434c0 10.408-8.437 18.845-18.845 18.845s-18.845-8.437-18.845-18.845z" fill="#23272b"/><path d="m295.422 426.614h-78.845c-23.091 0-41.811-18.719-41.811-41.811 0-23.091 18.719-41.81 41.811-41.81h78.845c23.091 0 41.811 18.719 41.811 41.81 0 23.091-18.719 41.811-41.811 41.811z" fill="#636978"/><path d="m295.422 342.993h-39.422v83.621h39.422c23.091 0 41.811-18.719 41.811-41.811 0-23.091-18.719-41.81-41.811-41.81z" fill="#414952"/><circle cx="212.878" cy="384.803" fill="#333940" r="18.629"/><circle cx="299.122" cy="384.803" fill="#23272b" r="18.629"/><path d="m392.768 177.533-95.311-24.355c-16.203-4.14-32.111 2.227-41.457 14.195-9.346-11.969-25.254-18.335-41.457-14.195l-95.311 24.355-40.09-67.154 6.273 90.917c1.878 27.225 26.489 47.121 53.504 43.254l91.189-13.056c10.596-1.517 19.72-7.106 25.893-15.041 6.172 7.935 15.296 13.524 25.893 15.041l91.189 13.056c27.015 3.867 51.626-16.028 53.504-43.254l6.273-90.917z" fill="#333940"/><path d="m256 216.453c6.172 7.935 15.296 13.524 25.893 15.041l91.189 13.056c27.015 3.868 51.625-16.028 53.504-43.253l6.273-90.917-40.09 67.154-95.311-24.354c-16.203-4.14-32.111 2.227-41.457 14.195v49.078z" fill="#23272b"/></svg>