<?xml version="1.0" standalone="no"?>
<!DOCTYPE svg PUBLIC "-//W3C//DTD SVG 20010904//EN"
 "http://www.w3.org/TR/2001/REC-SVG-20010904/DTD/svg10.dtd">
<svg version="1.0" xmlns="http://www.w3.org/2000/svg"
 width="1280.000000pt" height="960.000000pt" viewBox="0 0 1280.000000 960.000000"
 preserveAspectRatio="xMidYMid meet">
<g transform="translate(0.000000,960.000000) scale(0.100000,-0.100000)"
fill="#000000" stroke="none">
<path d="M1900 9570 c0 -36 66 -355 81 -389 5 -13 34 -112 64 -220 29 -108 76
-275 105 -371 29 -96 79 -269 112 -385 114 -403 224 -693 425 -1125 61 -131
96 -217 95 -238 0 -18 -26 -87 -57 -155 -96 -205 -100 -237 -39 -359 38 -76
41 -99 17 -119 -25 -22 -53 -90 -53 -134 0 -97 43 -197 115 -265 56 -53 125
-151 125 -178 0 -14 -15 -41 -35 -63 -84 -93 -103 -204 -54 -309 47 -101 113
-157 226 -190 23 -7 44 -19 47 -26 3 -8 0 -38 -5 -68 -16 -77 1 -192 41 -272
28 -58 38 -68 113 -114 90 -56 126 -62 213 -35 27 8 61 15 76 15 25 0 29 -6
42 -52 39 -138 96 -590 96 -760 0 -70 10 -198 40 -513 6 -60 20 -185 32 -276
12 -91 19 -173 15 -182 -3 -9 -25 -21 -49 -27 -56 -14 -192 -51 -348 -94 -490
-135 -726 -186 -1100 -241 -491 -71 -687 -106 -920 -166 -489 -125 -628 -174
-1081 -387 -119 -56 -221 -102 -227 -102 -9 0 -12 -220 -12 -885 l0 -885 1031
0 c1018 0 1031 0 1059 20 48 34 275 137 318 145 22 3 61 20 87 36 25 16 48 29
51 29 2 0 105 49 227 109 122 59 233 112 247 116 14 4 53 23 87 42 34 19 88
44 121 57 33 13 104 53 158 88 55 36 114 70 133 76 19 7 48 23 65 36 17 13 42
27 56 31 14 4 53 20 87 36 34 16 71 29 81 29 11 0 36 13 57 30 20 16 46 32 58
36 12 3 61 31 108 60 48 30 120 66 160 79 41 14 103 45 139 70 36 24 99 55
140 69 41 13 101 38 133 55 71 37 82 33 131 -44 19 -30 47 -62 61 -71 38 -25
202 -65 264 -65 114 1 206 56 247 148 13 29 28 53 32 53 5 0 17 -9 27 -20 10
-11 39 -34 66 -50 26 -17 54 -42 63 -55 9 -13 36 -36 62 -51 40 -24 53 -26
110 -21 100 8 232 84 266 154 7 15 18 28 24 30 7 2 42 -23 78 -55 64 -57 116
-82 167 -82 13 0 60 12 103 26 64 21 89 36 126 73 56 56 70 100 70 215 0 47 4
86 9 86 5 0 22 -5 38 -11 41 -16 153 -12 209 7 105 35 220 141 254 232 12 31
26 79 31 107 14 75 18 83 42 91 12 5 90 7 172 5 177 -3 269 8 448 54 162 42
216 59 255 79 17 9 39 16 48 16 9 0 61 23 115 50 54 28 105 50 113 50 10 0 18
-28 30 -97 9 -54 21 -123 26 -153 5 -30 12 -86 15 -125 3 -38 10 -102 15 -141
8 -63 38 -518 55 -839 14 -254 35 -445 86 -777 l11 -68 1264 0 1265 0 -7 52
c-15 131 -248 938 -326 1133 -34 83 -85 231 -114 330 -29 99 -71 234 -94 300
-23 66 -57 171 -76 234 -20 63 -41 126 -48 140 -8 14 -36 89 -64 166 -76 214
-152 404 -231 580 -39 87 -71 164 -71 170 0 6 22 33 49 59 64 63 93 129 99
227 4 66 1 81 -21 126 -14 28 -47 68 -72 90 -25 23 -45 46 -45 53 0 7 12 26
27 44 14 17 37 55 49 84 22 48 23 58 13 127 -23 172 -91 288 -191 330 -21 8
-38 21 -38 28 0 6 21 42 46 79 50 72 72 153 73 266 1 88 -68 270 -121 320 -34
31 -75 42 -196 51 -127 9 -140 19 -89 66 53 48 106 164 114 247 5 63 4 69 -38
149 -31 60 -65 104 -115 154 -60 60 -91 80 -210 139 -76 39 -142 74 -146 80
-3 5 -14 49 -23 98 -18 91 -17 137 5 318 23 190 22 247 -6 452 l-6 47 38 10
c389 102 874 177 1555 241 848 79 1082 117 1629 266 212 58 400 110 418 115
l32 11 0 1084 c0 948 -2 1084 -15 1084 -48 0 -1721 -402 -2186 -525 -189 -50
-722 -212 -1189 -361 -344 -110 -339 -108 -668 -230 -184 -68 -258 -91 -270
-85 -9 5 -33 26 -52 46 -45 48 -80 65 -219 109 -182 57 -265 46 -380 -54 l-60
-52 -59 49 c-71 59 -125 77 -221 71 -100 -5 -188 -52 -251 -133 -26 -33 -54
-61 -63 -63 -9 -2 -41 22 -74 55 -48 49 -70 63 -126 81 -37 12 -80 22 -95 22
-50 0 -212 -71 -243 -106 -9 -11 -51 -76 -94 -146 -42 -71 -82 -128 -88 -128
-6 0 -40 12 -75 26 -95 38 -164 26 -344 -60 -66 -31 -141 -109 -170 -176 -14
-31 -18 -62 -16 -105 l3 -60 -115 -12 c-157 -16 -262 -16 -361 1 -202 35 -603
53 -736 33 -48 -7 -53 -6 -64 15 -8 14 -15 130 -20 342 -11 399 -37 761 -67
917 -6 30 -13 113 -16 184 -3 72 -14 190 -23 263 l-17 132 -1263 0 -1263 0 0
-30z m4339 -3949 c77 -79 123 -117 166 -139 33 -16 92 -54 130 -84 39 -30 115
-85 170 -123 55 -37 132 -98 170 -135 39 -37 84 -74 101 -83 61 -32 61 -39 -7
-114 -77 -85 -102 -125 -152 -238 -65 -152 -148 -308 -183 -347 -18 -21 -51
-73 -73 -115 -21 -43 -56 -98 -77 -123 -58 -67 -79 -101 -94 -145 -28 -89 -45
-86 -162 23 -51 48 -161 146 -243 219 -83 72 -180 164 -217 205 -40 45 -101
98 -154 133 -134 89 -274 241 -274 297 0 14 30 59 75 113 41 50 97 122 124
160 79 114 553 605 584 605 5 0 58 -49 116 -109z"/>
</g>
</svg>
