<svg id="Capa_1" enable-background="new 0 0 512 512" height="512" viewBox="0 0 512 512" width="512" xmlns="http://www.w3.org/2000/svg"><circle cx="256" cy="256" fill="#ff583e" r="256"/><path d="m512 256c0-23.535-3.192-46.32-9.139-67.966l-78.686-78.686-30.369 55.628-82.464-82.464-129.554 359.488 69.946 69.946c1.421.023 2.84.054 4.266.054 141.385 0 256-114.615 256-256z" fill="#db0404"/><path d="m189.766 211.289h-26.328c-41.76 0-75.612-33.853-75.612-75.612v-26.328h26.328c41.76 0 75.612 33.853 75.612 75.612z" fill="#dce1eb"/><path d="m322.234 211.289h26.328c41.76 0 75.612-33.853 75.612-75.612v-26.328h-26.328c-41.76 0-75.612 33.853-75.612 75.612z" fill="#bec3d2"/><path d="m344.167 189.356h15c23.791 0 43.077-19.286 43.077-43.077v-14.999h-15c-23.791 0-43.077 19.286-43.077 43.077z" fill="#ff6c52"/><path d="m167.833 189.356h-15c-23.791 0-43.077-19.286-43.077-43.077v-14.999h15c23.791 0 43.077 19.286 43.077 43.077z" fill="#ff9b87"/><path d="m387.746 225.259c0 72.761-58.985 220.282-131.746 220.282s-131.746-147.52-131.746-220.282 58.985-114.451 131.746-114.451 131.746 41.69 131.746 114.451z" fill="#e9edf5"/><path d="m256 110.808c-.135 0-.27.003-.405.003v334.717c.135.001.27.013.405.013 72.761 0 131.746-147.521 131.746-220.282s-58.985-114.451-131.746-114.451z" fill="#cdd2e1"/><path d="m289.92 201.052h-67.84l-21.423-118.54h110.686z" fill="#636978"/><path d="m311.343 82.512h-55.748v118.54h34.325z" fill="#414952"/><circle cx="189.589" cy="278.175" fill="#636978" r="19.281"/><circle cx="322.411" cy="278.175" fill="#414952" r="19.281"/><path d="m296.802 457.77h-81.604c-23.899 0-43.274-19.374-43.274-43.274 0-23.899 19.374-43.274 43.274-43.274h81.604c23.899 0 43.274 19.374 43.274 43.274 0 23.9-19.375 43.274-43.274 43.274z" fill="#636978"/><path d="m296.802 371.223h-41.207v86.548h41.207c23.899 0 43.274-19.375 43.274-43.274 0-23.9-19.375-43.274-43.274-43.274z" fill="#414952"/><circle cx="211.369" cy="414.497" fill="#333940" r="19.281"/><circle cx="300.631" cy="414.497" fill="#23272b" r="19.281"/><path d="m124.321 221.245c-.04 1.328-.067 2.664-.067 4.014 0 8.717.855 18.513 2.47 28.993h54.652z" fill="#7e8596"/><path d="m211.369 323.877-65.168 1.603c5.277 13.754 11.391 27.356 18.218 40.192z" fill="#7e8596"/><g fill="#636978"><path d="m387.679 221.245c.04 1.328.067 2.664.067 4.014 0 8.717-.855 18.513-2.47 28.993h-54.652z"/><path d="m300.631 323.877 65.168 1.603c-5.277 13.754-11.391 27.356-18.218 40.192z"/></g></svg>