<svg id="Capa_1" enable-background="new 0 0 512 512" height="512" viewBox="0 0 512 512" width="512" xmlns="http://www.w3.org/2000/svg"><circle cx="256" cy="256" fill="#ff583e" r="256"/><path d="m512 256c0-3.623-.094-7.224-.243-10.81l-83.583-83.583-244.007 88.393-93.898 133.304 125.548 125.548c13.092 2.064 26.51 3.148 40.183 3.148 141.385 0 256-114.615 256-256z" fill="#db0404"/><path d="m211.763 141.816-18.381-18.938c-17.406-17.934-45.843-18.996-64.539-2.411l-38.119 33.815c-13.474 11.953-20.393 29.646-18.6 47.569l18.145 181.453 98.995-107.995z" fill="#cdd2e1"/><path d="m300.237 141.816 18.381-18.938c17.406-17.934 45.843-18.996 64.539-2.411l38.119 33.815c13.474 11.953 20.393 29.646 18.6 47.569l-18.145 181.453-98.995-107.994z" fill="#afb4c8"/><path d="m372.994 213.332c0 64.614-52.38 116.994-116.994 116.994s-116.994-52.38-116.994-116.994 52.38-88.496 116.994-88.496 116.994 23.882 116.994 88.496z" fill="#dce1eb"/><path d="m256 124.836c-.135 0-.27.002-.405.002v205.482c.135 0 .27.005.405.005 64.614 0 116.994-52.38 116.994-116.994 0-64.613-52.38-88.495-116.994-88.495z" fill="#bec3d2"/><path d="m274.147 460.42h-38.295l-19.401-196.167c-2.423-22.894 15.526-42.842 38.548-42.842 23.022 0 40.971 19.948 38.548 42.842z" fill="#cdd2e1"/><path d="m255.595 221.427v238.993h18.552l19.4-196.167c2.403-22.696-15.218-42.484-37.952-42.826z" fill="#afb4c8"/><circle cx="188.25" cy="235" fill="#9196aa" r="11.5"/><circle cx="323.75" cy="235" fill="#707789" r="11.5"/><path d="m179.344 395.5v-103.681c0-10.117 8.202-18.319 18.319-18.319 12.72 0 21.569 12.646 17.21 24.596z" fill="#fff"/><path d="m332.656 395.5v-103.681c0-10.117-8.202-18.319-18.319-18.319-12.72 0-21.569 12.646-17.21 24.596z" fill="#e9edf5"/></svg>